# xmcd
#
# Track frame offsets: 
#        150
#        24615
#        59832
#        83670
#        98587
#        129942
#        146917
#        160345
#        174757
#        197255
#
# Disc length: 2663 seconds
#
# Revision: 5
# Processed by: cddbd v1.5.2PL0 Copyright (c) Steve Scherf et al.
# Submitted via: ExactAudioCopy v0.99pb2
#
DISCID=7b0a650a
DTITLE=Split Enz - Mental Notes
DYEAR=1976
DGENRE=Progressive Rock
TTITLE0=Walking down a road
TTITLE1=Under the Wheel
TTITLE2=Amy (darling)
TTITLE3=So long for now
TTITLE4=Stranger than Fiction
TTITLE5=Time for a Change
TTITLE6=Maybe
TTITLE7=Titus
TTITLE8=Spellbound
TTITLE9=Mental Notes
EXTD=YEAR: 1976
EXTT0=
EXTT1=
EXTT2=
EXTT3=
EXTT4=
EXTT5=
EXTT6=
EXTT7=
EXTT8=
EXTT9=
PLAYORDER=
